<svg width="302" height="158" viewBox="0 0 302 158" fill="none" xmlns="http://www.w3.org/2000/svg">
<path d="M39.454 133.818L38.7523 200.186C38.7523 200.186 35.9456 201.599 28.1617 201.599C20.3779 201.599 17.5712 200.186 17.5712 200.186L20.3779 173.355C20.3779 173.355 10.5077 171.24 10.5077 168.434C10.5077 165.627 32.3905 87.9752 32.3905 87.9752C32.3905 87.9752 43.6921 107.687 39.454 133.818Z" fill="#6DA4E3" stroke="#334155" stroke-width="0.5" stroke-miterlimit="10"/>
<path d="M20.387 173.346L29.5368 131.058" stroke="#334155" stroke-width="0.5" stroke-miterlimit="10"/>
<path d="M23.9235 87.9194C23.9235 87.9194 36.6285 104.862 38.0412 111.926C39.4539 118.989 39.4539 133.818 39.4539 133.818C43.5971 123.426 46.2126 112.487 47.219 101.345C48.6317 83.6907 34.5141 74.5128 34.5141 74.5128L23.9235 87.9194Z" fill="#334155" stroke="#334155" stroke-width="0.5" stroke-miterlimit="10"/>
<path d="M262.669 133.818L263.371 200.186C263.371 200.186 266.178 201.599 273.962 201.599C281.746 201.599 284.552 200.186 284.552 200.186L281.746 173.355C281.746 173.355 291.616 171.24 291.616 168.434C291.616 165.627 269.724 87.9752 269.724 87.9752C269.724 87.9752 258.431 107.687 262.669 133.818Z" fill="#6DA4E3" stroke="#334155" stroke-width="0.5" stroke-miterlimit="10"/>
<path d="M281.727 173.345L273.241 124.172" stroke="#334155" stroke-width="0.5" stroke-miterlimit="10"/>
<path d="M278.2 87.9187C278.2 87.9187 265.485 104.862 264.073 111.925C262.66 118.989 262.669 133.808 262.669 133.808C258.521 123.417 255.902 112.478 254.895 101.335C253.482 83.6806 267.609 74.5028 267.609 74.5028L278.2 87.9187Z" fill="#334155" stroke="#334155" stroke-width="0.5" stroke-miterlimit="10"/>
<path d="M278.097 87.9191C239.612 65.1589 195.721 53.1515 151.01 53.1515C106.299 53.1515 62.408 65.1589 23.9234 87.9191L1.63828 50.2347C0.0384721 47.559 1.54472 43.6858 5.05308 41.7585C49.6554 16.8245 99.9021 3.73326 151.001 3.73326C202.099 3.73326 252.346 16.8245 296.948 41.7585C300.447 43.7138 301.963 47.559 300.363 50.2347L278.097 87.9191Z" fill="#6DA4E3"/>
<path d="M278.097 87.9191C239.612 65.1589 195.721 53.1515 151.01 53.1515C106.299 53.1515 62.408 65.1589 23.9234 87.9191L1.63828 50.2347C0.0384721 47.559 1.54472 43.6858 5.05308 41.7585C49.6554 16.8245 99.9021 3.73326 151.001 3.73326C202.099 3.73326 252.346 16.8245 296.948 41.7585C300.447 43.7138 301.963 47.559 300.363 50.2347L278.097 87.9191Z" stroke="#334155" stroke-width="0.5" stroke-miterlimit="10"/>
<path d="M60.2236 62.2063C59.4724 62.4469 58.8023 62.4621 58.2135 62.2519C57.6524 62.0328 57.108 61.5783 56.5803 60.8883L39.9571 39.0162C39.3658 38.2239 39.1808 37.4548 39.4021 36.709C39.6513 35.9543 40.2906 35.4121 41.3201 35.0823C42.0713 34.8417 42.7135 34.8354 43.2467 35.0634C43.771 35.2637 44.2787 35.6993 44.7698 36.3703L59.4207 56.2511L57.7512 56.7858L58.4725 32.0274C58.5101 31.187 58.6797 30.5192 58.9812 30.0238C59.2827 29.5284 59.7674 29.1737 60.4351 28.9599C61.1029 28.746 61.6895 28.7575 62.1949 28.9944C62.7003 29.2314 63.2169 29.6948 63.7446 30.3848L78.4523 50.1554L76.9915 50.6233L77.4908 25.8899C77.5095 25.0863 77.6696 24.4368 77.9711 23.9414C78.2726 23.446 78.7851 23.0825 79.5085 22.8508C80.3988 22.5656 81.1507 22.6622 81.7642 23.1407C82.3776 23.6191 82.6739 24.3525 82.653 25.3409L81.7604 52.8693C81.7228 53.7096 81.5393 54.382 81.21 54.8863C80.8807 55.3906 80.3404 55.763 79.5891 56.0036C78.8379 56.2443 78.1818 56.255 77.6207 56.0359C77.0597 55.8168 76.5153 55.3622 75.9875 54.6723L62.095 36.2972L63.0549 35.9898L62.3532 59.0853C62.3156 59.9257 62.1321 60.598 61.8028 61.1023C61.5013 61.5977 60.9749 61.9657 60.2236 62.2063Z" fill="#334155"/>
<path d="M93.7235 52.08C92.7787 52.2825 91.9964 52.1956 91.3767 51.8193C90.7796 51.4082 90.3797 50.7302 90.1773 49.7854L84.9407 25.3479C84.7382 24.4031 84.8282 23.6351 85.2106 23.0441C85.6156 22.4183 86.2905 22.0041 87.2353 21.8016L102.568 18.5161C103.284 18.3627 103.867 18.4323 104.319 18.7247C104.8 19.011 105.114 19.4978 105.261 20.185C105.415 20.9008 105.334 21.502 105.019 21.9888C104.726 22.4408 104.222 22.7434 103.506 22.8968L90.5362 25.6762L92.3216 34.0081L104.347 31.4312C105.091 31.2717 105.69 31.3382 106.142 31.6306C106.594 31.9231 106.896 32.4272 107.05 33.143C107.203 33.8588 107.134 34.4427 106.841 34.8947C106.549 35.3466 106.03 35.6524 105.286 35.8119L93.2603 38.3888L95.147 47.1932L108.117 44.4138C108.833 44.2604 109.417 44.3299 109.869 44.6224C110.35 44.9087 110.667 45.4098 110.82 46.1256C110.973 46.8414 110.889 47.4283 110.568 47.8865C110.276 48.3384 109.772 48.6411 109.056 48.7945L93.7235 52.08Z" fill="#334155"/>
<path d="M117.359 47.6421C116.462 47.7598 115.736 47.6051 115.179 47.178C114.619 46.7219 114.28 46.0456 114.163 45.1489L110.875 20.115C110.754 19.1895 110.894 18.4649 111.296 17.9413C111.723 17.385 112.385 17.048 113.282 16.9303C114.178 16.8126 114.89 16.9692 115.418 17.4001C115.97 17.7983 116.307 18.4602 116.429 19.3858L119.471 42.5541L132.053 40.9019C132.834 40.7993 133.454 40.9239 133.912 41.2757C134.399 41.6237 134.692 42.1737 134.79 42.9257C134.889 43.6777 134.75 44.2992 134.373 44.79C134.021 45.2481 133.455 45.5284 132.674 45.631L117.359 47.6421Z" fill="#334155"/>
<path d="M151.591 44.9794C148.379 45.0944 145.597 44.5508 143.244 43.3487C140.92 42.1163 139.102 40.3395 137.791 38.0184C136.479 35.6681 135.765 32.8725 135.649 29.6315C135.563 27.2081 135.835 25.0204 136.467 23.0682C137.098 21.0869 138.045 19.3866 139.31 17.9673C140.574 16.5187 142.142 15.3956 144.013 14.5977C145.913 13.7696 148.06 13.3127 150.454 13.227C152.06 13.1695 153.644 13.3174 155.206 13.6708C156.769 14.0242 158.147 14.5595 159.342 15.2769C159.969 15.6345 160.394 16.087 160.619 16.6345C160.842 17.1527 160.904 17.6767 160.806 18.2064C160.707 18.707 160.474 19.1392 160.107 19.5032C159.77 19.8661 159.324 20.0867 158.772 20.1649C158.247 20.2129 157.656 20.044 156.999 19.6583C156.073 19.1067 155.08 18.7184 154.02 18.4932C152.959 18.2681 151.889 18.1748 150.808 18.2135C148.735 18.2877 146.999 18.7738 145.598 19.6717C144.198 20.5696 143.161 21.8346 142.489 23.4666C141.817 25.0986 141.522 27.0825 141.606 29.4183C141.688 31.725 142.124 33.6827 142.912 35.2917C143.701 36.9006 144.825 38.1028 146.286 38.8984C147.747 39.6939 149.514 40.0545 151.587 39.9803C152.697 39.9406 153.787 39.77 154.858 39.4686C155.928 39.138 156.934 38.6634 157.877 38.045C158.506 37.6424 159.069 37.4614 159.568 37.5021C160.094 37.5125 160.538 37.672 160.9 37.9806C161.262 38.2892 161.51 38.6896 161.645 39.1818C161.779 39.6448 161.767 40.1422 161.611 40.674C161.453 41.1767 161.119 41.6272 160.607 42.0255C159.469 42.9141 158.091 43.6212 156.473 44.1469C154.883 44.6423 153.255 44.9198 151.591 44.9794Z" fill="#334155"/>
<path d="M177.857 45.8112C174.877 45.543 172.321 44.6503 170.19 43.1331C168.088 41.6185 166.529 39.6227 165.515 37.1458C164.504 34.6396 164.143 31.7796 164.432 28.5658C164.65 26.1408 165.197 23.9958 166.071 22.1306C166.949 20.2362 168.092 18.6603 169.501 17.4028C170.942 16.1187 172.601 15.193 174.478 14.6256C176.387 14.0317 178.467 13.8359 180.716 14.0384C183.726 14.3092 186.281 15.2019 188.383 16.7165C190.488 18.2019 192.048 20.183 193.062 22.66C194.076 25.137 194.438 27.9823 194.149 31.1961C193.931 33.6211 193.383 35.7808 192.506 37.6752C191.628 39.5696 190.469 41.1588 189.028 42.4428C187.616 43.7295 185.956 44.6699 184.047 45.2638C182.17 45.8312 180.106 46.0137 177.857 45.8112ZM178.291 40.9905C180.19 41.1614 181.836 40.8678 183.23 40.1096C184.652 39.3541 185.789 38.1752 186.64 36.573C187.521 34.9734 188.065 33.0195 188.273 30.7114C188.588 27.2055 188.044 24.4174 186.64 22.3471C185.265 20.2795 183.146 19.1168 180.282 18.8591C178.413 18.6908 176.766 18.9844 175.343 19.74C173.923 20.4663 172.773 21.6292 171.893 23.2288C171.044 24.8019 170.515 26.757 170.304 29.0943C169.992 32.5711 170.536 35.3592 171.937 37.4587C173.339 39.5582 175.457 40.7354 178.291 40.9905Z" fill="#334155"/>
<path d="M197.636 48.3332C196.841 48.1411 196.285 47.7664 195.969 47.2092C195.653 46.6519 195.591 45.9756 195.783 45.1804L201.967 19.5782C202.166 18.7546 202.544 18.1847 203.101 17.8685C203.665 17.5239 204.345 17.4476 205.14 17.6397C205.85 17.8112 206.37 18.0869 206.699 18.467C207.063 18.8255 207.337 19.3725 207.52 20.108L213.339 42.1176L211.976 41.7883L227.201 24.862C227.699 24.2912 228.178 23.9259 228.637 23.7664C229.104 23.5784 229.692 23.5702 230.402 23.7417C231.197 23.9338 231.753 24.3085 232.069 24.8658C232.392 25.3947 232.454 26.0709 232.255 26.8945L226.071 52.4967C225.879 53.2919 225.515 53.8652 224.979 54.2167C224.472 54.5751 223.806 54.6548 222.983 54.4558C222.187 54.2638 221.632 53.8891 221.315 53.3318C220.999 52.7745 220.937 52.0982 221.129 51.3031L225.894 31.5796L226.831 31.8059L213.944 45.9606C213.543 46.3748 213.159 46.6577 212.792 46.8095C212.425 46.9612 211.971 46.9719 211.432 46.8415C210.892 46.7112 210.479 46.4913 210.193 46.1818C209.914 45.8438 209.702 45.4168 209.556 44.9007L204.476 26.361L205.499 26.608L200.724 46.3741C200.532 47.1693 200.168 47.7426 199.632 48.0941C199.125 48.4525 198.46 48.5322 197.636 48.3332Z" fill="#334155"/>
<path d="M235.498 58.3757C234.599 58.0277 233.994 57.5272 233.683 56.8741C233.409 56.2044 233.447 55.42 233.795 54.5209L242.796 31.266C243.144 30.3668 243.639 29.7753 244.282 29.4914C244.962 29.1908 245.752 29.2145 246.651 29.5626L261.241 35.2101C261.923 35.4738 262.372 35.8513 262.589 36.3426C262.833 36.8444 262.829 37.4223 262.576 38.0762C262.312 38.7574 261.916 39.2149 261.386 39.4487C260.895 39.6658 260.309 39.6425 259.628 39.3788L247.285 34.6013L244.216 42.5301L255.66 46.9595C256.368 47.2337 256.831 47.6165 257.048 48.1078C257.265 48.5991 257.242 49.1853 256.978 49.8665C256.714 50.5477 256.337 50.9968 255.846 51.2139C255.354 51.431 254.754 51.4025 254.046 51.1282L242.603 46.6988L239.36 55.0771L251.702 59.8546C252.383 60.1182 252.832 60.4957 253.05 60.987C253.294 61.4889 253.284 62.0804 253.021 62.7615C252.757 63.4427 252.366 63.8866 251.847 64.0931C251.356 64.3102 250.77 64.2869 250.089 64.0233L235.498 58.3757Z" fill="#334155"/>
</svg>
